<svg xmlns="http://www.w3.org/2000/svg" viewBox="0 0 438.86 125.54"><defs><style>.cls-1{fill:#ecb32d;}.cls-2{fill:#63c1a0;}.cls-3{fill:#e01a59;}.cls-4{fill:#331433;}.cls-5{fill:#d62027;}.cls-6{fill:#89d3df;}.cls-7{fill:#258b74;}.cls-8{fill:#819c3c;}.cls-9{fill:#2d333a;}</style></defs><title>slacklogo</title><g id="Layer_2" data-name="Layer 2"><g id="Layer_1-2" data-name="Layer 1"><path class="cls-1" d="M79,11.21a10.88,10.88,0,0,0-20.7,6.7l28.1,86.4a10.84,10.84,0,0,0,13.2,6.7c5.8-1.7,9.3-7.8,7.4-13.4C107,97.41,79,11.21,79,11.21Z"/><path class="cls-2" d="M35.53,25.31A10.88,10.88,0,0,0,14.83,32l28.1,86.4a10.84,10.84,0,0,0,13.2,6.7c5.8-1.7,9.3-7.8,7.4-13.4C63.53,111.51,35.53,25.31,35.53,25.31Z"/><path class="cls-3" d="M114.43,82.71a10.88,10.88,0,1,0-6.7-20.7l-86.5,28.2a10.84,10.84,0,0,0-6.7,13.2c1.7,5.8,7.8,9.3,13.4,7.4C28.13,110.81,114.43,82.71,114.43,82.71Z"/><path class="cls-4" d="M39.23,107.21c5.6-1.8,12.9-4.2,20.7-6.7-1.8-5.6-4.2-12.9-6.7-20.7l-20.7,6.7Z"/><path class="cls-5" d="M82.83,93c7.8-2.5,15.1-4.9,20.7-6.7-1.8-5.6-4.2-12.9-6.7-20.7l-20.7,6.7Z"/><path class="cls-6" d="M100.23,39.21a10.88,10.88,0,0,0-6.7-20.7L7.13,46.61a10.84,10.84,0,0,0-6.7,13.2c1.7,5.8,7.8,9.3,13.4,7.4C14,67.21,100.23,39.21,100.23,39.21Z"/><path class="cls-7" d="M25.13,63.61c5.6-1.8,12.9-4.2,20.7-6.7-2.5-7.8-4.9-15.1-6.7-20.7l-20.7,6.7Z"/><path class="cls-8" d="M68.63,49.51c7.8-2.5,15.1-4.9,20.7-6.7-2.5-7.8-4.9-15.1-6.7-20.7l-20.7,6.7Z"/><path class="cls-9" d="M202,33.91c3.8,1.7,4.1,2.9,1.1,8.6s-3.8,6.2-7.6,4.7c-4.7-2-10.8-3.5-14.7-3.5-6.4,0-10.6,2.3-10.6,5.8,0,11.5,36.6,5.3,36.6,29.7,0,12.3-10.6,20.5-26.4,20.5-8.3,0-18.6-2.8-25.7-6.4-3.5-1.8-3.8-2.8-.7-8.7,2.6-5.1,3.5-5.7,7.3-4.1,6,2.6,13.7,4.7,18.8,4.7,5.8,0,9.7-2.4,9.7-5.8,0-11.1-37.3-5.8-37.3-29.5,0-12.6,10.5-21,26.2-21A60,60,0,0,1,202,33.91Z"/><path class="cls-9" d="M231.63,4.91v91.2c0,1.4-1.5,2.8-3.5,2.8h-9.6c-2.1,0-3.5-1.5-3.5-2.8V4.91c0-4.5,1.3-4.9,8.3-4.9C231.33-.09,231.63.51,231.63,4.91Z"/><path class="cls-9" d="M299.83,56.11v39.3a3.36,3.36,0,0,1-3.5,3.5h-9.5a3.34,3.34,0,0,1-3.5-3.8l.1-4.2a26.74,26.74,0,0,1-19.9,8.7c-14.3,0-23.9-8.3-23.9-20.6,0-13.1,10.8-22,27.1-22a43.23,43.23,0,0,1,16.4,3v-4.5c0-7.2-5.7-11.5-15.4-11.5-4.5,0-10.1,1.8-14.5,4.4-3.4,1.9-4.2,1.8-7.9-3.7s-3.5-6.5,0-8.8a46.47,46.47,0,0,1,24-7.1C288,28.81,299.83,38.91,299.83,56.11Zm-44.2,22.8c0,4.7,4,7.8,9.9,7.8a20.77,20.77,0,0,0,17.6-9.4v-6.1a36,36,0,0,0-12.6-2.3C261.53,68.91,255.63,73.11,255.63,78.91Z"/><path class="cls-9" d="M364.83,34c3.5,2,3.6,3.1-.2,9-3.6,5.6-4.2,5.9-8.1,4a27.77,27.77,0,0,0-11.4-2.8c-12,0-20,7.9-20,19.9,0,12.4,8,20.8,20,20.8a29.1,29.1,0,0,0,12.8-3.5c3.5-2,4.2-1.9,7.9,3.5,3.3,5,3.3,6.2.3,8.3a40.56,40.56,0,0,1-21.3,6.5c-22.2,0-37.1-14.2-37.1-35.6,0-21.2,14.9-35.3,37.3-35.3A43.38,43.38,0,0,1,364.83,34Z"/><path class="cls-9" d="M437.43,90.31c2.8,3.5,1.7,4.8-5.3,7.3s-8.1,2.4-10.6-.8l-19.9-26.5-8.9,8.6v17.2c0,1.4-1.5,2.8-3.5,2.8h-9.6c-2.1,0-3.5-1.5-3.5-2.8V4.91c0-4.5,1.3-4.9,8.3-4.9,8.1,0,8.3.6,8.3,4.9v51.8l27.2-26.1c3-2.8,4.7-2.6,10,.9,5.9,3.8,6.3,4.9,3.5,7.6l-20.2,19.8Z"/></g></g></svg>