<?xml version="1.0" encoding="utf-8"?>
<!-- Generator: Adobe Illustrator 21.1.0, SVG Export Plug-In . SVG Version: 6.00 Build 0)  -->
<svg version="1.1" id="Communications" xmlns="http://www.w3.org/2000/svg" xmlns:xlink="http://www.w3.org/1999/xlink" x="0px"
	 y="0px" viewBox="0 0 1380 1739" style="enable-background:new 0 0 1380 1739;" xml:space="preserve">
<style type="text/css">
	.st0{fill:none;stroke:#1A1718;stroke-width:2;stroke-linecap:round;stroke-linejoin:round;stroke-miterlimit:10;}
	.st1{fill:none;stroke:#161819;stroke-width:2;stroke-miterlimit:10;}
</style>
<path class="st0" d="M999.5,1141c-10.8,0-19.5,7.8-19.5,17.5c0,3.6,1.2,6.9,3.2,9.6c-0.3,3.2-1,7.7-3.2,9.9c0,0,6.7-0.9,11.2-3.7
	c2.5,1.1,5.3,1.7,8.3,1.7c10.8,0,19.5-7.8,19.5-17.5S1010.3,1141,999.5,1141z"/>
<path class="st0" d="M994.8,1171.9c0.1,0.1-3.6,2.4-3.6,2.4"/>
<path class="st1" d="M987.4,1196.6l-4.2-2.7c-1-0.6-2.2-2.5-2.2-3.7v-3.2c0,0,2.9-1.9,3.8-5.8c0.7-0.5,1.2-1.3,1.2-2.2
	c0,0,0-1.4,0-2.4c-3.2,1-6,1.4-6,1.4c2.2-2.2,3-6.7,3.2-9.9c-1.1-1.5-2-3.3-2.5-5.1c-1.4-0.6-3.2-1-5.7-1c-10.8,0-10,8-10,8v3.1
	c-0.5,0.5-1,1.6-1,2.3v3.5c0,0.9,0.5,1.8,1.2,2.2c0.9,3.9,3.8,5.8,3.8,5.8v3.2c0,1.2-1.2,3.1-2.2,3.7l-4.2,2.7
	c-1.1,0.7-0.6,2.4,0.7,2.4h23.4C988,1199,988.5,1197.3,987.4,1196.6z"/>
</svg>
